Coordinates
version=1
nRows=29
nColumns=24
inDegrees=yes

Units are S.I. units (second, meters, Newtons, ...)
Angles are in degrees.

endheader
time	pelvis_tilt	pelvis_list	pelvis_rotation	pelvis_tx	pelvis_ty	pelvis_tz	hip_flexion_r	hip_adduction_r	hip_rotation_r	knee_angle_r	ankle_angle_r	subtalar_angle_r	mtp_angle_r	hip_flexion_l	hip_adduction_l	hip_rotation_l	knee_angle_l	ankle_angle_l	subtalar_angle_l	mtp_angle_l	lumbar_extension	lumbar_bending	lumbar_rotation
      0.45000000	     -9.38319691	      5.72342896	      1.74138324	     -0.80334880	      1.02383381	      0.27905881	     38.75624671	     -5.29359236	     -0.48670935	     -4.94206680	      8.11629684	     -4.68481013	      7.91609163	     -7.61865895	      7.28516449	      2.67668122	     -5.91429336	     19.56765791	      8.93078765	      0.73274098	     -4.66620367	     -5.80475064	     -5.56599817
      0.45416667	     -9.40058135	      5.70452214	      1.84519488	     -0.79734651	      1.02297326	      0.27914787	     38.75660111	     -5.27888727	     -0.13952756	     -5.46391271	      8.16067581	     -4.77240978	      7.92035529	     -7.80138327	      7.22069200	      2.74547238	     -6.24180036	     19.62958016	      9.01788795	      0.74589322	     -4.63625689	     -5.67225052	     -5.57708485
      0.45833333	     -9.42709690	      5.66885003	      1.94536646	     -0.79130623	      1.02212973	      0.27930607	     38.72375066	     -5.23435514	      0.29724507	     -5.92339335	      8.01880918	     -5.08902677	      7.93174932	     -7.91073494	      7.11997528	      2.56268384	     -6.70043930	     19.76740965	      9.52377221	      0.82673780	     -4.60932654	     -5.52165795	     -5.64324796
      0.46250000	     -9.43814978	      5.62508550	      2.05155187	     -0.78521152	      1.02136136	      0.27943872	     38.66839626	     -5.18982643	      0.63218164	     -6.40503238	      7.92973131	     -5.25482495	      7.95420827	     -8.03616579	      7.01124091	      2.42859072	     -7.16322950	     19.87860841	      9.93083345	      0.93984983	     -4.58955795	     -5.35531082	     -5.65537082
      0.46666667	     -9.45228661	      5.56704173	      2.16158695	     -0.77906729	      1.02064176	      0.27958248	     38.59258033	     -5.13160158	      0.93899749	     -6.86226113	      7.76538832	     -5.46281580	      7.98390587	     -8.15429810	      6.88447786	      2.31352185	     -7.63667774	     19.94807755	     10.30506294	      1.08753413	     -4.55574418	     -5.16931667	     -5.69030740
      0.47083333	     -9.47030125	      5.49671316	      2.28290299	     -0.77287266	      1.01997829	      0.27971831	     38.49838055	     -5.06794568	      1.20483100	     -7.29607450	      7.55921755	     -5.66912115	      8.01540816	     -8.25420465	      6.74137150	      2.21202583	     -8.14179959	     20.01992414	     10.66713064	      1.24036588	     -4.51295028	     -4.96347048	     -5.71341905
      0.47500000	     -9.47768756	      5.41541011	      2.38679520	     -0.76662892	      1.01938117	      0.27989053	     38.38194439	     -4.98297300	      1.43888909	     -7.71502682	      7.27211666	     -5.89088751	      8.05312480	     -8.36318712	      6.58280990	      2.04860359	     -8.64162759	     20.01116380	     11.08126438	      1.43423013	     -4.47384284	     -4.74805299	     -5.73456367
      0.47916667	     -9.50711822	      5.33551426	      2.48976332	     -0.76034420	      1.01878711	      0.28008742	     38.28439582	     -4.89555277	      1.66204323	     -8.13582247	      6.97634909	     -6.17343908	      8.10629433	     -8.42350625	      6.42230048	      1.85484431	     -9.20371699	     20.01511318	     11.51211442	      1.69953485	     -4.39873979	     -4.54155710	     -5.76103178
      0.48333333	     -9.51592449	      5.23493202	      2.60242385	     -0.75404630	      1.01831372	      0.28026855	     38.14400926	     -4.79763742	      1.82500820	     -8.51890218	      6.59482824	     -6.45392810	      8.16468793	     -8.48463158	      6.23692045	      1.68477491	     -9.79667879	     19.98917107	     11.92049544	      2.00975273	     -4.35424569	     -4.29905630	     -5.77972151
      0.48750000	     -9.55661723	      5.12590225	      2.70330843	     -0.74767632	      1.01783146	      0.28045980	     38.04568548	     -4.69014384	      1.91056131	     -8.92005423	      6.18357444	     -6.63159087	      8.70841624	     -8.50972471	      6.04184446	      1.47792088	    -10.39243497	     19.83895009	     12.32787802	      4.68275062	     -4.24365778	     -4.04294225	     -5.80452443
      0.49166667	     -9.56125581	      5.00593829	      2.82209966	     -0.74133457	      1.01751036	      0.28064119	     37.88203681	     -4.58010962	      2.01681488	     -9.26964806	      5.69588079	     -7.01161560	      8.70311391	     -8.55492139	      5.83645085	      1.38711691	    -11.01773143	     19.74715210	     12.60030888	      4.76606936	     -4.20593895	     -3.78526185	     -5.78761116
      0.49583333	     -9.60611247	      4.87488512	      2.93155326	     -0.73494225	      1.01718034	      0.28085706	     37.76935194	     -4.45587037	      2.07492649	     -9.63559787	      5.17799022	     -7.35260025	      8.70192133	     -8.52128356	      5.61326621	      1.19772350	    -11.71540562	     19.62897799	     12.99412894	      4.91459169	     -4.09453937	     -3.51236998	     -5.79300782
      0.50000000	     -9.62676256	      4.72470815	      3.03190473	     -0.72852756	      1.01695672	      0.28106783	     37.63233299	     -4.31414473	      2.09158061	    -10.00386417	      4.64856438	     -7.68018312	      8.70071946	     -8.49982572	      5.37045891	      1.01816345	    -12.43454866	     19.46951206	     13.35222127	      5.11329784	     -4.01041978	     -3.20641958	     -5.77759721
      0.50416667	     -9.65679363	      4.58208366	      3.12042126	     -0.72211500	      1.01678097	      0.28132533	     37.52014742	     -4.17351351	      2.09594906	    -10.39501687	      4.08057558	     -8.01082777	      8.69982476	     -8.44244915	      5.13112388	      0.80076718	    -13.18916358	     19.24571694	     13.76770151	      5.43767778	     -3.92203466	     -2.92590804	     -5.75720156
      0.50833333	     -9.69491535	      4.41702659	      3.20954406	     -0.71567393	      1.01666548	      0.28156220	     37.42361710	     -4.01846746	      2.05044528	    -10.80789756	      3.55771161	     -8.32545053	      8.69263253	     -8.35125495	      4.87363090	      0.63148856	    -13.99766441	     18.99861273	     14.05777728	      5.77810180	     -3.80683590	     -2.59463048	     -5.72455752
      0.51250000	     -9.73615826	      4.22512514	      3.29512860	     -0.70921069	      1.01661843	      0.28180754	     37.33378654	     -3.84003742	      1.98530978	    -11.23364469	      3.04958269	     -8.64054928	      8.67922101	     -8.22617810	      4.58350650	      0.43988693	    -14.85819084	     18.72793392	     14.34352136	      6.14735116	     -3.68738068	     -2.24350827	     -5.67621802
      0.51666667	     -9.75573758	      4.05642909	      3.36511415	     -0.70277158	      1.01666258	      0.28207489	     37.26229719	     -3.68402989	      1.83963601	    -11.73857162	      2.60274332	     -8.77128125	      8.58109817	     -8.10361759	      4.31733805	      0.24534837	    -15.73373202	     18.29577683	     14.61922647	     10.10253669	     -3.60645062	     -1.92783216	     -5.57377701
      0.52083333	     -9.78992486	      3.85743789	      3.42498648	     -0.69628961	      1.01676803	      0.28236430	     37.19258045	     -3.49007472	      1.76178076	    -12.22538014	      2.14170622	     -9.09521850	      8.56072916	     -7.94881423	      4.02706840	      0.10493050	    -16.64534215	     17.87538351	     14.78281770	     10.18781023	     -3.48773808	     -1.55493568	     -5.55049478
      0.52500000	     -9.81117945	      3.64861289	      3.47422847	     -0.68981711	      1.01693913	      0.28265919	     37.13256069	     -3.28988967	      1.62240872	    -12.76227608	      1.76714748	     -9.27565243	      8.53367861	     -7.75759781	      3.71822084	     -0.10591785	    -17.64590009	     17.46269483	     15.03431332	     10.34706473	     -3.38492904	     -1.17980109	     -5.45981148
      0.52916667	     -9.82143278	      3.44337291	      3.50339801	     -0.68334534	      1.01718027	      0.28299717	     37.08286120	     -3.08427080	      1.48456928	    -13.34768993	      1.44012570	     -9.44211565	      8.48677446	     -7.55573786	      3.40949126	     -0.33796995	    -18.67658405	     16.94648700	     15.31855042	     10.65689826	     -3.30114567	     -0.80343749	     -5.36637191
      0.53333333	     -9.82470113	      3.22483818	      3.52764215	     -0.67686871	      1.01750231	      0.28332485	     37.02321035	     -2.86786382	      1.34091667	    -13.93322685	      1.14664172	     -9.57913648	      8.04414562	     -7.33754956	      3.09326850	     -0.51402037	    -19.73711188	     16.33223478	     15.41633526	     13.81373775	     -3.22209478	     -0.41843747	     -5.24917091
      0.53750000	     -9.83685714	      3.00418764	      3.53794263	     -0.67038322	      1.01784487	      0.28366359	     36.99697632	     -2.65079558	      1.15093574	    -14.57687328	      0.98762100	     -9.57520055	      8.03287708	     -7.06877750	      2.77240182	     -0.72526434	    -20.87487010	     15.74713095	     15.56951649	     13.88137429	     -3.12387315	     -0.02081828	     -5.13037653
      0.54166667	     -9.82170426	      2.77459832	      3.52751042	     -0.66390523	      1.01826328	      0.28405024	     36.94233894	     -2.41281606	      0.98360663	    -15.22127367	      0.83844271	     -9.60489388	      8.00890548	     -6.79974193	      2.43226510	     -0.97994059	    -22.06049214	     15.10648771	     15.76564839	     14.02022260	     -3.06323614	      0.38452766	     -4.99398733
      0.54583333	     -9.79793241	      2.55007581	      3.50050740	     -0.65744125	      1.01874131	      0.28447534	     36.87406409	     -2.16760517	      0.85835781	    -15.85649722	      0.69695953	     -9.68249523	      7.59313922	     -6.51015267	      2.09675713	     -1.22532355	    -23.28093748	     14.32773397	     15.89582559	     16.51567794	     -3.01434090	      0.78329515	     -4.84513683
      0.55000000	     -9.76222279	      2.32150028	      3.46259829	     -0.65097423	      1.01926362	      0.28488484	     36.80290782	     -1.92489078	      0.66721802	    -16.51782512	      0.67971090	     -9.57290667	      7.58663388	     -6.20209994	      1.75609040	     -1.47620132	    -24.55698923	     13.58408195	     16.01235232	     16.57072136	     -2.97939428	      1.19506731	     -4.69283841
      0.55416667	     -9.71057000	      2.09070571	      3.40895176	     -0.64451405	      1.01984014	      0.28533874	     36.69859496	     -1.66749036	      0.51538272	    -17.14387933	      0.65278061	     -9.51093742	      7.57129798	     -5.88132782	      1.40516805	     -1.74789745	    -25.87927519	     12.78029879	     16.12464334	     16.66386166	     -2.95861636	      1.59948310	     -4.52591405
      0.55833333	     -9.65760757	      1.87036947	      3.33971874	     -0.63806216	      1.02045649	      0.28580855	     36.58340194	     -1.41065622	      0.39492730	    -17.75084350	      0.64911774	     -9.45098797	      7.55727154	     -5.54722143	      1.07235706	     -1.97786317	    -27.20812176	     11.86507512	     16.16447221	     16.74404041	     -2.95404786	      2.01808295	     -4.36995809
      0.56250000	     -9.59659057	      1.64874457	      3.25401312	     -0.63165332	      1.02104790	      0.28634963	     36.46612253	     -1.14352750	      0.24887350	    -18.36637813	      0.68163925	     -9.37992901	      7.51961971	     -5.16580661	      0.70852367	     -2.32608030	    -28.64533319	     11.02968550	     16.34426042	     16.95295271	     -2.95385891	      2.39900244	     -4.15330051
      0.56666667	     -9.51325673	      1.42178258	      3.16241842	     -0.62524042	      1.02172640	      0.28688785	     36.28564392	     -0.86534884	      0.13583540	    -18.89906885	      0.70754607	     -9.29279459	      7.48474222	     -4.79623197	      0.34451946	     -2.62076471	    -30.08508382	     10.09361634	     16.36484841	     17.13359767	     -2.96958484	      2.78164702	     -3.96210244
